<?xml version="1.0" encoding="utf-8"?>
<!-- Generator: Adobe Illustrator 23.1.1, SVG Export Plug-In . SVG Version: 6.00 Build 0)  -->
<svg version="1.1" id="Capa_1" xmlns="http://www.w3.org/2000/svg" xmlns:xlink="http://www.w3.org/1999/xlink" x="0px" y="0px"
	 viewBox="0 0 400 400" style="enable-background:new 0 0 400 400;" xml:space="preserve">
<style type="text/css">
	.st0{fill:#FFFFFF;}
	.st1{fill:#505D44;}
	.st2{fill:#515E45;}
</style>
<g>
	<path class="st2" d="M259.05,324.37H140.95c-38.18,0-69.25-31.07-69.25-69.25V171.3c0-28.49,17.1-53.73,43.56-64.31l72.65-29.03
		c7.79-3.12,16.38-3.12,24.18,0L284.74,107c26.46,10.57,43.56,35.81,43.56,64.31v83.82C328.3,293.3,297.23,324.37,259.05,324.37z
		 M200,95.64c-1.58,0-3.16,0.3-4.67,0.9h0l-72.65,29.03c-18.82,7.52-30.98,25.47-30.98,45.73v83.82c0,27.16,22.09,49.25,49.25,49.25
		h118.09c27.16,0,49.25-22.09,49.25-49.25V171.3c0-20.26-12.16-38.21-30.98-45.73l-72.65-29.03C203.16,95.94,201.58,95.64,200,95.64
		z"/>
	<g>
		<path class="st2" d="M200,184.81c-23.03,0-42.75,24.05-42.75,43.73c0,10.81,6.12,19.22,16.8,23.08c7.67,2.77,17,3.15,25.95,3.15
			c8.95,0,18.29-0.38,25.95-3.15c10.68-3.86,16.8-12.27,16.8-23.08C242.75,208.86,223.03,184.81,200,184.81z M221.95,230.28
			c-1.26,0.93-5.78,2.7-21.95,2.7s-20.69-1.77-21.95-2.7c-0.02-0.2-0.03-0.4-0.03-0.6c0-7.6,10.17-23.08,21.98-23.08
			c11.81,0,21.98,15.48,21.98,23.08C221.98,229.88,221.97,230.08,221.95,230.28z"/>
		<circle class="st2" cx="200" cy="153.84" r="13.19"/>
		<circle class="st2" cx="252.76" cy="180.22" r="13.19"/>
		<circle class="st2" cx="147.24" cy="180.22" r="13.19"/>
	</g>
</g>
</svg>
