<?xml version="1.0" encoding="utf-8"?>
<!-- Generator: Adobe Illustrator 23.1.1, SVG Export Plug-In . SVG Version: 6.00 Build 0)  -->
<svg version="1.1" id="Capa_1" xmlns="http://www.w3.org/2000/svg" xmlns:xlink="http://www.w3.org/1999/xlink" x="0px" y="0px"
	 viewBox="0 0 400 400" style="enable-background:new 0 0 400 400;" xml:space="preserve">
<style type="text/css">
	.st0{fill:#FFFFFF;}
	.st1{fill:#505D44;}
	.st2{fill:#515E45;}
</style>
<g>
	<path class="st0" d="M259.05,324.37H140.95c-38.18,0-69.25-31.07-69.25-69.25V171.3c0-28.49,17.1-53.73,43.55-64.31l72.65-29.03
		c7.79-3.12,16.38-3.12,24.18,0L284.74,107c26.46,10.57,43.56,35.81,43.56,64.31v83.82C328.29,293.3,297.23,324.37,259.05,324.37z
		 M195.33,96.54l-72.65,29.03c-18.82,7.52-30.97,25.47-30.97,45.73v83.82c0,27.16,22.09,49.25,49.25,49.25h118.09
		c27.16,0,49.25-22.09,49.25-49.25V171.3c0-20.26-12.16-38.21-30.98-45.73l-72.65-29.03C201.66,95.34,198.34,95.34,195.33,96.54
		L195.33,96.54z"/>
	<path class="st0" d="M200,275.87c-3.85,0-7.69-1.19-10.97-3.58l-8.39-6.1h-10.37c-8.11,0-15.25-5.18-17.75-12.9l-3.21-9.86
		l-8.39-6.1c-6.56-4.77-9.29-13.16-6.78-20.87l3.21-9.87l-3.21-9.87c-2.51-7.71,0.22-16.1,6.78-20.87l8.39-6.1l3.21-9.87
		c2.51-7.72,9.64-12.9,17.75-12.9h10.37l8.39-6.1c6.56-4.77,15.38-4.77,21.94,0l0,0l8.39,6.1h10.37c8.11,0,15.25,5.18,17.75,12.9
		l3.21,9.87l8.39,6.1c6.56,4.77,9.29,13.16,6.78,20.87l-3.21,9.86l3.21,9.87c2.51,7.71-0.22,16.1-6.78,20.87l-8.39,6.1l-3.21,9.86
		c-2.51,7.72-9.64,12.9-17.75,12.9h-10.37l-8.39,6.1C207.69,274.68,203.84,275.87,200,275.87z M171.23,246.2h9.84
		c3.97,0,7.76,1.23,10.97,3.56l7.96,5.78l7.96-5.78c3.21-2.33,7-3.57,10.97-3.57h9.84l3.04-9.36c1.23-3.77,3.57-7,6.78-9.33
		l7.96-5.78l-3.04-9.36c-1.23-3.77-1.23-7.77,0-11.54l3.04-9.35l-7.96-5.78c-3.21-2.33-5.56-5.56-6.78-9.33l-3.04-9.35h-9.84
		c-3.97,0-7.76-1.23-10.97-3.56l-7.96-5.78l-7.96,5.78c-3.21,2.33-7,3.57-10.97,3.57h-9.84l-3.04,9.36c-1.22,3.77-3.57,7-6.78,9.33
		l-7.96,5.78l3.04,9.36c1.23,3.77,1.23,7.76,0,11.54l-3.04,9.35l7.96,5.78c3.21,2.33,5.55,5.56,6.78,9.33L171.23,246.2z"/>
	<circle class="st0" cx="200" cy="206.6" r="13.19"/>
</g>
</svg>
