<?xml version="1.0" encoding="utf-8"?>
<!-- Generator: Adobe Illustrator 23.1.1, SVG Export Plug-In . SVG Version: 6.00 Build 0)  -->
<svg version="1.1" id="Capa_1" xmlns="http://www.w3.org/2000/svg" xmlns:xlink="http://www.w3.org/1999/xlink" x="0px" y="0px"
	 viewBox="0 0 400 400" style="enable-background:new 0 0 400 400;" xml:space="preserve">
<style type="text/css">
	.st0{fill:#FFFFFF;}
	.st1{fill:#505D44;}
	.st2{fill:#515E45;}
</style>
<g>
	<g>
		<path class="st2" d="M259.05,324.37H140.95c-38.18,0-69.25-31.07-69.25-69.25V171.3c0-28.49,17.1-53.73,43.56-64.31l72.65-29.03
			c7.79-3.12,16.38-3.12,24.18,0L284.74,107c26.46,10.57,43.56,35.81,43.56,64.31v83.82C328.3,293.3,297.23,324.37,259.05,324.37z
			 M200,95.64c-1.58,0-3.16,0.3-4.67,0.9h0l-72.65,29.03c-18.82,7.52-30.98,25.47-30.98,45.73v83.82
			c0,27.16,22.09,49.25,49.25,49.25h118.09c27.16,0,49.25-22.09,49.25-49.25V171.3c0-20.26-12.16-38.21-30.98-45.73l-72.65-29.03
			C203.16,95.94,201.58,95.64,200,95.64z"/>
	</g>
	<g>
		<path class="st2" d="M263.19,203.33c-3.22-2.65-6.75-4.88-10.49-6.64c4.24-4.95,6.82-11.37,6.82-18.39
			c0-15.61-12.7-28.3-28.3-28.3s-28.3,12.7-28.3,28.3c0,7.02,2.57,13.44,6.82,18.39c-3.74,1.76-7.27,3.99-10.49,6.64
			c-8.85,7.29-15.01,17.45-17.33,28.62c-0.18,0.85-0.28,1.71-0.31,2.56h-46.08c3.19-8.7,11.59-14.73,21.05-14.73
			c0.02,0,0.04,0,0.07,0c0.05,0,0.09,0,0.14,0c13.47,0,24.43-10.96,24.43-24.43c0-13.47-10.96-24.43-24.43-24.43
			c-13.47,0-24.43,10.96-24.43,24.43c0,5.37,1.75,10.35,4.7,14.38c-8.82,5.33-15.41,14.16-17.61,24.76
			c-0.79,3.83,0.16,7.76,2.62,10.78c2.45,3.01,6.09,4.74,9.97,4.74h133.83c4.5,0,8.72-2.01,11.57-5.53
			c2.89-3.55,4.02-8.16,3.08-12.64C278.09,220.96,271.86,210.46,263.19,203.33L263.19,203.33z M156.77,186.44
			c4.92,0,8.92,4,8.92,8.92s-4,8.92-8.92,8.92c-4.92,0-8.92-4-8.92-8.92S151.85,186.44,156.77,186.44z M231.21,165.5
			c7.05,0,12.79,5.74,12.79,12.79s-5.74,12.79-12.79,12.79s-12.79-5.74-12.79-12.79S224.16,165.5,231.21,165.5z M197.41,234.51
			h-0.19c3.57-15.76,17.77-27.14,34-27.14s30.43,11.38,34,27.14H197.41z"/>
		<path class="st2" d="M265.86,251.52H132.03c-4.34,0-8.4-1.93-11.13-5.3c-2.75-3.38-3.82-7.77-2.93-12.04
			c2.11-10.15,8.25-19.14,16.96-24.89c-2.68-4.17-4.08-8.96-4.08-13.95c0-14.3,11.63-25.93,25.93-25.93s25.93,11.63,25.93,25.93
			s-11.63,25.93-25.93,25.93l-0.14,0c-8.06,0-15.36,4.64-18.84,11.74h42.42c0.06-0.46,0.13-0.92,0.22-1.37
			c2.39-11.51,8.73-21.97,17.84-29.48c2.8-2.31,5.86-4.32,9.11-6c-3.87-5.15-5.98-11.42-5.98-17.87c0-16.43,13.37-29.8,29.8-29.8
			s29.8,13.37,29.8,29.8c0,6.45-2.11,12.73-5.98,17.87c3.25,1.68,6.31,3.69,9.11,6c8.79,7.24,15.29,17.94,17.84,29.36
			c1.03,4.94-0.21,10-3.38,13.91C275.46,249.3,270.81,251.52,265.86,251.52z M156.77,172.43c-12.64,0-22.93,10.28-22.93,22.93
			c0,4.88,1.53,9.55,4.41,13.5l0.97,1.32l-1.4,0.85c-8.71,5.26-14.87,13.93-16.92,23.78c-0.7,3.38,0.14,6.86,2.32,9.53
			c2.17,2.66,5.38,4.19,8.81,4.19h133.83c4.04,0,7.84-1.81,10.41-4.97c2.6-3.2,3.62-7.35,2.78-11.39
			c-2.4-10.76-8.53-20.86-16.81-27.68l0,0c-3.09-2.55-6.52-4.71-10.18-6.44l-1.78-0.84l1.28-1.49c4.16-4.85,6.46-11.04,6.46-17.42
			c0-14.78-12.02-26.8-26.8-26.8s-26.8,12.02-26.8,26.8c0,6.37,2.29,12.56,6.46,17.42l1.28,1.49l-1.78,0.84
			c-3.66,1.73-7.08,3.89-10.18,6.44c-8.59,7.07-14.56,16.93-16.81,27.77c-0.16,0.76-0.25,1.53-0.28,2.31l-0.05,1.45h-49.67
			l0.74-2.02c3.45-9.4,12.48-15.72,22.46-15.72l0.1,0l0.02,1.5l0.09-1.5c12.64,0,22.92-10.28,22.92-22.93
			S169.41,172.43,156.77,172.43z M267.08,236.01h-71.75l0.42-1.83c3.71-16.4,18.63-28.31,35.46-28.31s31.74,11.91,35.46,28.31
			L267.08,236.01z M199.15,233.01h64.12c-4.06-14.1-17.25-24.14-32.06-24.14S203.21,218.92,199.15,233.01z M156.77,205.77
			c-5.74,0-10.42-4.67-10.42-10.42s4.67-10.42,10.42-10.42s10.42,4.67,10.42,10.42S162.52,205.77,156.77,205.77z M156.77,187.94
			c-4.09,0-7.42,3.33-7.42,7.42s3.33,7.42,7.42,7.42s7.42-3.33,7.42-7.42S160.86,187.94,156.77,187.94z M231.21,192.59
			c-7.88,0-14.29-6.41-14.29-14.29S223.33,164,231.21,164s14.29,6.41,14.29,14.29S239.09,192.59,231.21,192.59z M231.21,167
			c-6.23,0-11.29,5.07-11.29,11.29c0,6.23,5.07,11.29,11.29,11.29c6.23,0,11.29-5.07,11.29-11.29
			C242.51,172.07,237.44,167,231.21,167z"/>
	</g>
</g>
</svg>
